<svg xmlns="http://www.w3.org/2000/svg" viewBox="0 0 54 56" role="img" aria-label="NEMAR">
  <g fill="#5bbad5">
    <path d="M32.3 3c.6.6.6 1.6.6 2.3 0 .7.2 1.6.7 2.4-.7-.1-1.5-1.6-1.6-2.2-.1-.8.2-1.6-.5-2.1-.9-.6-2.2-.7-2.9.1-.7.8 0 2.1.1 3.2.1-.1.8.3 1.5 1 .1.1.9-.1.9-1.4.4 1 .3 1.9 0 2.3.5.5.9 1.1 1.2 1.7-1.6-.9-2-1.7-3.3-2.2-.5 1.3-.5 3.9-.3 5.9.7-.9 1.4-1.2 2.1-.4-.6-.1-1.6.2-1.6 1-.4.4 0 .2-.4 1-.8 1.9.4 1.2.5 2.6.1.9-.6 1.1-1 1.6-.1 1-.1 2.2.2 3.1.8 0 2.2-.4 2.7-.8.2-.4.3-1.1.5-1.5.2-.5.4-.9.6-1.3.8-1.3.3-1.4-.2-2.7-.6-1.6.6-1.8-.2-3.1-.5-.8-1.5-1.5-1.7-2.3.3.2 1.3.9 1.7 1.2.8.5.7.8 1.3 1.5h1.3c-.5.6-1.9.9-1.2 2.2 2.1 3.9-.9 3.2-.3 5.3.3.9.4 2.5 0 3.3-.2-.5 0-.6-.4-1.2-1-1.2-1.9-.8-3.1.1-1.1.7-2.2 3.1-2.7 5 0 .5-.1.9-.2 1.4v.2-.1.1-.2c-.1-.5-.2-1-.2-1.4-.5-1.8-1.6-4.2-2.7-5-1.2-.8-2.1-1.3-3.1-.1-.4.5-.2.6-.4 1.2-.4-.8-.2-2.4 0-3.3.6-2.1-2.4-1.4-.3-5.3.7-1.4-.7-1.7-1.2-2.2H20c.6-.7.5-1 1.3-1.5.4-.3 1.4-1.1 1.7-1.2-.2.8-1.2 1.5-1.7 2.3-.8 1.3.4 1.4-.2 3.1-.5 1.3-1 1.4-.2 2.7.2.4.4.8.6 1.3.2.5.2 1.1.5 1.5.5.4 1.9.8 2.7.8.3-1 .3-2.1.2-3.1-.4-.4-1.1-.6-1-1.6.1-1.4 1.3-.7.5-2.6-.3-.8 0-.6-.4-1-.1-.8-1-1.2-1.6-1 .8-.8 1.5-.5 2.1.4.2-2 .2-4.6-.3-5.9-1.3.5-1.7 1.3-3.3 2.2.3-.6.7-1.1 1.2-1.7-.3-.4-.4-1.3 0-2.3.1 1.3.8 1.5.9 1.4.7-.7 1.4-1.1 1.5-1 .1-1.1.8-2.5.1-3.2-.8-.9-2.1-.7-2.9-.1-.7.5-.4 1.3-.5 2.1-.1.6-.8 2.1-1.6 2.2.3-.8.4-1.6.4-2.3 0-.7 0-1.7.6-2.3 5.4-3.2 5.1 2.6 4.9 3.8-.1.8-.1 1.8 0 2.5.7 4.3-.2 5-.1 6 0 .4.3.7.3 1.2.1 1.1-.6 1.3-.8 2 1.3.9 1.2 2 1 3.9-.1.7-.6 1.5-.6 1.8.2.2.8 1.2 1.1 2.5.3-1.3.9-2.2 1.1-2.5.1-.3-.5-1.1-.6-1.8-.2-1.9-.3-3 1-3.9-.3-.7-.9-.8-.8-2 0-.5.3-.8.3-1.2.1-1-.9-1.6-.1-6 .1-.8.1-1.8 0-2.5 0-1.3-.4-7.1 5-3.9zM10.7 43.7c-.4.4-.9.4-1.2.3.3 3.6 5.2 5.3 5.8 5.1.2 1.2.4 1.6 1 2.2 1 .9 2.5 1.9 4.1 1.6 1.3-.5 1.7-2.7 1.4-3.9-.3 1.3-.3 2.4-1.9 2.7-.9.2-1.1-.1-1.8-.4-.9-.5-1.6-1.1-2.1-1.8.2-.1 2.7.9 3.2-.6-1.4.8-3-.6-3.2-.9-.3-.5.2-1.9.1-2.5 1.5-.4 3.4 3.1 6.4 1.1-2.4.4-4.4-2.5-5.4-2.4-1.6.6-3.4-.3-3.9-2-1 1.8 1.4 2.8 2.2 3-.3.7-1.3 1.6-.1 3.4-1-.5-4.9-2.7-4.6-4.9z"/>
    <path d="M11 42.7c-1.7 1-2.4-.5-3.1-1.3.2-.1.2-1.1 1.8-.6-.4-.8-2.2-1.2-2.5-.4-.7-1.2-1.2-2.9-1.4-5.6 1.3 0 1.8-.1 2.6.6.5.4 1.1 1.1 1.2 1.9-.8.1-1.3.4-1.5 1 .7-.1 1.2-.5 2.1-.2.5.2.9 2.3 1.9 2.4 1 .1 2 .1 2.3-1.3-1.6 1-2.6.3-3.1-1.2l.7-.4.1-.1c-2.1-.5-1.5-2-4.1-3.2-.8-.3-1.6-.1-2.2-.3-.9-1.2.4-2.7.9-3.5 0-.8.2-1.5-.1-2.4 0-.5 2.1-1.6 3-1.4 1.2.2 1.1.7 1.1 1.8-.3 1.3-1.1.8-2.5.5 1.1 1.3 2.2 1.3 3 1.3.6 1.2.9 1.4 2.2 2.2.5.3 1.1.3 1.6.6.9.5 1.3.3 1.3 1.3-1.5.8-2.1.5-3.7-.2-1.2-.6-2-2-4-1.5 1.9.9 3.4 3.2 6.2 3.4.9-.3 1.3-.4 1.8.3.4.6.5 1.4.5 2.1.1 2.2-1.8 1.6-1.4 3.9l.2-.4c.4-.9 1.5-1.6 2.3-2 1.2.6 5.3 1.3 5.7 2.2 0-.7-.8-1.1-1.2-1.3-3.4-2-3.7-.5-4.7-3.8-.6-1.9.2-2.8 1.7-3.4 1.2-.5 2 .1 3 .9.2.2.5.4.8.6-.9-1.7-2.2-3.1-4.4-2.4-.9.3-1 .5-1.6.9-.9-.1-1.7-.9-2.1-1.5-.6-1.1-.4-1.6-.3-2.8-.5.4-.7 1.3-.8 2-3.1-1.3-2.2-2.1-2.6-4-.2-1-.7-1.4-1.9-1.5-.7 0-3.6 0-4.5 2.1-.2.8.4 1.6 0 2.2-.3.6-.5 1.2-.7 2.1-.5 2 .4 6.9 1.7 8.8.9 1.2 3.1 4 4.7 1.6zM5.6 26.7c.1-1.3.4-3.4 1-4.5-.3-2 .7-4.5 2-6.2-.1-1.3 1.5-4.3 2.4-5.6l.3.5v.6c0 .5 0 .7-.2 1.1-.2.6-.6 1.2-.7 1.8-.2.9.3 1.4-.2 2-.4.4-.7 1.5-.3 2.5.3.9.4 1 1.3 1.4-.4-.7-.6-2.4-.1-3.2.4-.7.6-.5.3-1.5-.2-.7-.2-.8 0-1.5 1-2.7 2.9-2.2 4.3-2.3-.6-.8-2-1-3.5-.3v-1.3c1.1-.4 2.2-.5 3.1-1.3 1.1-1 .8-1.5.1-2.1.1 1-.3 1.4-.9 1.8-.7.5-1.8.5-2.7.7-.8-1.3 1.8-3.1 3.8-4.2.8-.7 2.8-2.6 4.6-2.6-.8-.4-1.9-.2-2.4 0-1.1.5-1.9 1.3-2.8 2-1.3 1-3.4 1.9-4.3 3.7-.2.4-.2.7-.3 1-.5.6-.9.8-1.3 1.7-.8 1.8-2 2.4-1.8 3.9.2 1.4 0 .8-.6 1.8-.9 1.3-1.4 3.5-1.4 5.7-.7 2-.3 3.7.3 4.4z"/>
    <path d="M21.7 53c1.3 1.1 3.6-.3 3.9-1.7.2-1.1.6-1.2.8-2.1.1-.8-.1-1.6-.1-2.3-1.3-3.8-5.1-3.8-7-4.6.4.7 1.8 1.3 2.7 1.8 1.8 1 2.3 1.3 2.9 3.4.3 1.9-.2 2.1-.6 3.4-.5 1.6-1.7 2.5-2.6 2.1zM25.9 43.8c.3-.3.5-.7.6-1.2.1.5.3.9.6 1.2-.5-1.8.9-3.1.9-4.3 2.4 0 4.2-1 4.7-3.3-1.3 1.2-2.6 2.3-4.6 2.3-1.7-3.7-.2-8.1 2.4-7.9-1.1-1.7-2.7.1-3.1.3-.4.4-.7.8-.9 1.4-.2-.5-.4-.9-.9-1.4-.4-.2-2-1.9-3.1-.3 2.6-.2 4.1 4.2 2.4 7.9-2 0-3.3-1.1-4.6-2.3.4 2.3 2.3 3.3 4.7 3.3 0 1.2 1.4 2.5.9 4.3z"/>
    <path d="M26.5 41.2c-.2-1.7-.2-1.8 0-2.3.2.5.2.6 0 2.3zM14.3 24.5c-1.9-.6-2.2-1-2.2-1.8 0-.2.2-.6.5-1 .4-.5 1.2.2 1.4-1-.5.7-1.1-.1-1.8.3s-1.4 1.1-1.1 1.8C8.8 22 8.3 21 7.9 19.1c-.2.9-.1 1.3.1 1.7.2.5.7 1.1.8 1.5-.6.2-1.6 1.3-2.1 2.4.7-.9 3.5-1.9 4.4-.8.5.2 1.4.9 3.2.6z"/>
    <path d="M15.7 25.4c-1.3.6-1.7 1.7-1.7 2.5 1.6-1.7 2.9-1.5 4.8-.5 3.7 1.7-3.5 2.5-1.2 4.7.4-.7.9-1.1 2-1.8s1.2-1 2-1.7c.4-.5.6-1.1.8-1.8-.9.4-1.3 1.2-3.2 0-.8-.5-1.8-1.3-2.3-1.9-2.1-2.4.1-3.7.3-6.1.2-1.7-.6-2.2-.8-3.4-.2-1.5.9-1.6 1.5-2.5.7-1.1.6-1.5.5-3.3-.7-.8-1-1.3-.3-2.4.4-.7-.1-1.2.6-2.3-1.4.8-.7 1.6-1.2 2.3-.8 1.1-.5 1.4 0 2.4.4 1 0 2.1-.5 2.7-.5.7-1.2.6-1.6 1.8-.7-.2-1.6-.7-2.3-.2.4.2 1.8.1 2.1 1.7.1.8.5 1.3.6 1.9.1.2-2.9-.4-2.8 1.7 1.5-1.2 3-.6 2.9-.3-.2 1.1-.8 1.9-1 3-.2 1.7.5 2.5.8 3.5zM42.3 43.7c.4.4.9.4 1.2.3-.3 3.6-5.2 5.3-5.8 5.1-.2 1.2-.4 1.6-1 2.2-1 .9-2.5 1.9-4.1 1.6-1.3-.5-1.7-2.7-1.4-3.9.3 1.3.3 2.4 1.9 2.7.9.2 1.1-.1 1.8-.4.9-.5 1.6-1.1 2.1-1.8-.2-.1-2.7.9-3.2-.6 1.4.8 3-.6 3.2-.9.3-.5-.2-1.9-.1-2.5 1.5-.4 3.4 3.1 6.4 1.1-2.4.4-4.4-2.5-5.4-2.4-1.6.6-3.4-.3-3.9-2 1 1.8-1.4 2.8-2.2 3 .3.7 1.3 1.6.1 3.4 1-.5 4.8-2.7 4.6-4.9z"/>
    <path d="M41.9 42.7c1.7 1 2.4-.5 3.1-1.3-.2-.1-.2-1.1-1.8-.6.4-.8 2.2-1.2 2.5-.4.7-1.2 1.2-2.9 1.4-5.6-1.3 0-1.8-.1-2.6.6-.5.4-1.1 1.1-1.2 1.9.8.1 1.3.4 1.5 1-.7-.1-1.2-.5-2.1-.2-.5.2-.9 2.3-1.9 2.4-1 .1-2 .1-2.3-1.3 1.6 1 2.6.3 3.1-1.2l-.7-.4-.1-.1c2.1-.5 1.5-2 4.1-3.2.8-.4 1.6-.2 2.2-.4.9-1.2-.4-2.7-.9-3.5 0-.8-.2-1.5.1-2.4 0-.5-2.1-1.6-3-1.4-1.2.2-1.1.7-1.1 1.8.3 1.3 1.1.8 2.5.5-1.1 1.3-2.2 1.3-3 1.3-.6 1.2-.9 1.4-2.2 2.2-.5.3-1.1.3-1.6.6-.9.5-1.3.3-1.3 1.3 1.5.8 2.1.5 3.7-.2 1.2-.6 2-2 4-1.5-1.9.9-3.4 3.2-6.2 3.4-.9-.3-1.3-.4-1.8.3-.4.6-.5 1.4-.5 2.1-.1 2.2 1.8 1.6 1.4 3.9l-.2-.2c-.4-.9-1.5-1.6-2.3-2-1.2.6-5.3 1.3-5.7 2.2 0-.7.8-1.1 1.2-1.3 3.4-2 3.7-.5 4.7-3.8.6-1.9-.2-2.8-1.7-3.4-1.2-.5-2 .1-3 .9-.2.2-.5.4-.8.6.9-1.7 2.2-3.1 4.4-2.4.9.3 1 .5 1.6.9.9-.1 1.7-.9 2.1-1.5.6-1.1.4-1.6.3-2.8.5.4.7 1.3.8 2 3.1-1.3 2.2-2.1 2.6-4 .2-1 .7-1.4 1.9-1.5.7 0 3.6 0 4.5 2.1.2.8-.4 1.6 0 2.2.3.6.5 1.2.7 2.1.5 2-.4 6.9-1.7 8.8-.9 1.1-3 3.9-4.7 1.5zM47.4 26.7c-.1-1.3-.4-3.4-1-4.5.3-2-.7-4.5-2-6.2.1-1.3-1.5-4.3-2.4-5.6l-.3.5v.6c0 .5 0 .7.2 1.1.2.6.6 1.2.7 1.8.2.9-.3 1.4.2 2 .4.4.7 1.5.3 2.5-.3.9-.4 1-1.3 1.4.4-.7.6-2.4.1-3.2-.4-.7-.6-.5-.3-1.5.2-.7.2-.8 0-1.5-1-2.7-2.9-2.2-4.3-2.3.6-.8 2-1 3.5-.3v-1.3c-1.1-.4-2.2-.5-3.1-1.3-1.1-1-.8-1.5-.1-2.1-.1 1 .3 1.4.9 1.8.7.5 1.8.5 2.7.7.8-1.3-1.8-3.1-3.8-4.2-.8-.7-2.8-2.6-4.6-2.6.8-.4 1.9-.2 2.4 0 1.1.5 1.9 1.3 2.8 2 1.3 1 3.4 1.9 4.3 3.7.2.4.2.7.3 1 .3.5.7.7 1.1 1.6.8 1.8 2 2.4 1.8 3.9-.2 1.4 0 .8.6 1.8.9 1.3 1.4 3.5 1.4 5.7.8 2.1.4 3.8-.1 4.5z"/>
    <path d="M31.3 53c-1.3 1.1-3.6-.3-3.9-1.7-.2-1.1-.6-1.2-.8-2.1-.1-.8.1-1.6.1-2.3 1.3-3.8 5.1-3.8 7-4.6-.4.7-1.7 1.3-2.7 1.8-1.8 1-2.3 1.3-2.9 3.4-.3 1.9.2 2.1.6 3.4.5 1.6 1.6 2.5 2.6 2.1zM38.6 24.5c1.9-.6 2.2-1-2.2-1.8 0-.2-.2-.6-.5-1-.4-.5-1.2.2-1.4-1 .5.7 1.1-.1 1.8.3s1.4 1.1 1.1 1.8c2.3-.7 2.8-1.8 3.2-3.6.2.9.1 1.2-.1 1.7s-.7 1.1-.8 1.5c.6.2 1.6 1.3 2.1 2.4-.7-.9-3.5-1.9-4.4-.8-.4.1-1.3.8-3.2.5z"/>
    <path d="M37.2 25.4c1.3.6 1.7 1.7 1.7 2.5-1.6-1.7-2.9-1.5-4.8-.5-3.7 1.7 3.5 2.5 1.2 4.7-.4-.7-.9-1.1-2-1.8s-1.2-1-2-1.7c-.4-.5-.6-1.1-.8-1.8.9.4 1.3 1.2 3.2 0 .8-.5 1.8-1.3 2.3-1.9 2.1-2.4-.1-3.7-.3-6.1-.2-1.7.6-2.2.8-3.4.2-1.5-1-1.6-1.5-2.5-.7-1.1-.6-1.5-.5-3.3.7-.8 1-1.3.3-2.4-.4-.7.1-1.2-.6-2.3 1.4.8.7 1.6 1.2 2.3.8 1.1.5 1.4 0 2.4-.4 1 0 2.1.5 2.7.5.7 1.2.6 1.6 1.8.7-.2 1.6-.7 2.3-.2-.4.2-1.8.1-2.1 1.7-.1.8-.5 1.3-.6 1.9-.1.2 2.9-.4 2.8 1.7-1.5-1.2-3-.6-2.9-.3.2 1.1.8 1.9 1 3 .3 1.7-.4 2.5-.8 3.5z"/>
  </g>
  <g fill="#603cba" opacity="0.9">
    <path d="M26.5 41.9c1.2 0 2.2 1 2.2 2.3s-1 2.3-2.2 2.3-2.2-1-2.2-2.3 1-2.3 2.2-2.3zM26.5 28.2c1.2 0 2.2 1 2.2 2.3s-1 2.3-2.2 2.3-2.2-1-2.2-2.3 1-2.3 2.2-2.3zM26.4 12.8c1.1 0 2 1 2 2.2s-.9 2.2-2 2.2-2-1-2-2.2.9-2.2 2-2.2zM18.9 0c-1 0-2 .8-2.3 1.8S17 3.7 18 3.7c1 0 2-.8 2.3-1.8.2-1-.4-1.9-1.4-1.9zM34.3 0c1 0 2 .8 2.3 1.8.2 1-.4 1.9-1.4 1.9s-2-.8-2.3-1.8.4-1.9 1.4-1.9zM4.6 43.7c-.5.9-.1 2.3.7 3 .9.7 1.9.6 2.4-.4.5-.9.1-2.3-.7-3-.9-.7-1.9-.5-2.4.4zM17.9 54.4c.1.9 1 1.8 2 1.9 1 .1 1.7-.5 1.6-1.5-.1-.9-1-1.8-2-1.9-1-.1-1.7.6-1.6 1.5zM35.4 54.4c-.1.9-1 1.8-2 1.9-1 .1-1.7-.5-1.6-1.5.1-.9 1-1.8 2-1.9 1-.1 1.7.6 1.6 1.5zM48.9 43.7c.5.9.1 2.3-.7 3-.9.7-1.9.6-2.4-.4-.5-.9-.1-2.3.7-3 .9-.7 1.9-.5 2.4.4zM13.5 13.1c-1 .3-1.7 1.5-1.6 2.5.1 1.1 1.1 1.7 2.1 1.4 1-.3 1.7-1.5 1.6-2.5-.1-1.1-1.1-1.7-2.1-1.4zM39.6 13c1 .3 1.7 1.5 1.6 2.5-.1 1.1-1.1 1.7-2.1 1.4-1-.3-1.7-1.5-1.6-2.5-.1-1.1 1.1-1.8 2.1-1.4zM15 42.6c-.6.9-.5 2.3.3 3.1.8.8 1.9.7 2.5-.1.6-.9.5-2.3-.3-3.1-.7-.8-1.9-.8-2.5.1zM38.9 42.6c.6.9.5 2.3-.3 3.1-.8.8-1.9.7-2.5-.1s-.5-2.3.3-3.1c.7-.8 1.8-.8 2.5.1zM11 29c-.8.8-.9 2.1-.2 3.1.6.9 1.8 1 2.5.3.8-.8.9-2.1.2-3.1-.6-1-1.8-1.1-2.5-.3zM42.5 29.1c.8.8.9 2.1.2 3.1-.6.9-1.8 1-2.5.3-.8-.8-.9-2.1-.2-3.1.6-1 1.7-1.1 2.5-.3zM.6 30c-.7.8-.8 2.2-.2 3.1s1.7 1 2.4.3c.7-.8.8-2.2.2-3.1-.6-1-1.7-1.1-2.4-.3zM3.9 12.5c-.9.3-1.6 1.4-1.5 2.4.1 1 .9 1.6 1.8 1.3.9-.3 1.6-1.4 1.5-2.4s-.9-1.7-1.8-1.3zM49.2 12.3c.9.3 1.6 1.4 1.5 2.4-.1 1-.9 1.6-1.8 1.3-.9-.3-1.6-1.4-1.5-2.4.1-1 .9-1.6 1.8-1.3zM53.2 30c.7.8.8 2.2.2 3.1-.6.9-1.7 1-2.4.3-.7-.8-.8-2.2-.2-3.1.7-1 1.7-1.1 2.4-.3z"/>
  </g>
</svg>
